<svg width="62" height="59" viewBox="0 0 62 59" fill="none" xmlns="http://www.w3.org/2000/svg">
<rect x="0.5" y="0.5" width="61" height="58" rx="8.5" fill="#171C2C" stroke="#ED2770"/>
<path d="M30.5001 16.5536C31.0978 16.5452 31.6743 16.7543 32.1002 17.1341C32.5261 17.5136 32.7659 18.032 32.7659 18.5731C32.7659 19.1142 32.5261 19.6329 32.1002 20.0124C31.6743 20.3921 31.0978 20.6012 30.5001 20.5928C30.0227 20.5896 29.6325 20.9371 29.6287 21.3696V25.1612H31.3715L31.3717 22.0614C32.255 21.8901 33.0474 21.451 33.6177 20.8168C34.1882 20.1825 34.5024 19.3911 34.5087 18.5733C34.4867 17.2902 33.718 16.1129 32.4867 15.477C31.2555 14.841 29.7446 14.841 28.5134 15.477C27.2822 16.1129 26.5134 17.2902 26.4915 18.5733H28.2342C28.2397 18.0337 28.4812 17.5178 28.9059 17.1394C29.3306 16.7607 29.904 16.5501 30.5 16.5535L30.5001 16.5536Z" fill="#EB266F"/>
<path d="M31.5691 27.0966C31.5691 27.6311 31.0904 28.0644 30.5001 28.0644C29.9098 28.0644 29.4312 27.6311 29.4312 27.0966C29.4312 26.5622 29.9098 26.1289 30.5001 26.1289C31.0904 26.1289 31.5691 26.5622 31.5691 27.0966Z" fill="#EB266F"/>
<path d="M41.7102 24.994C42.3908 24.2429 43.3421 23.7333 44.3967 23.5551C43.567 22.939 43.0044 22.0778 42.8073 21.123C42.1268 21.8739 41.1754 22.3835 40.1208 22.5619C40.9505 23.178 41.5131 24.0393 41.7102 24.994Z" fill="#EB266F"/>
<path d="M20.9357 21.8786C19.8958 21.8061 18.9175 21.4036 18.1733 20.7422C18.0931 21.6835 17.6486 22.569 16.918 23.2428C17.9578 23.3153 18.9359 23.718 19.6801 24.3792C19.7603 23.438 20.205 22.5524 20.9357 21.8786Z" fill="#EB266F"/>
<path d="M34.1839 28.0646C35.2407 26.1613 37.2667 24.8529 39.5986 24.5678L39.4509 23.6096L39.4507 23.6094C36.7719 23.9381 34.4443 25.4418 33.23 27.6285L34.1839 28.0646Z" fill="#EB266F"/>
<path d="M26.8095 28.0649L27.8279 27.7701C27.3771 26.4878 26.5504 25.3403 25.4353 24.4504C24.3203 23.5606 22.9591 22.9616 21.4974 22.7178L21.3 23.6691C22.5723 23.8808 23.757 24.4016 24.7276 25.176C25.698 25.9502 26.4177 26.9488 26.8094 28.0649H26.8095Z" fill="#EB266F"/>
<path d="M27.2934 35.4393C27.2552 35.4393 27.2171 35.4356 27.1798 35.4283L17.6729 33.5572V42.2137L29.9457 44.9914L29.9619 32.8809L27.699 35.2708H27.6992C27.5975 35.378 27.4494 35.4398 27.2933 35.4398L27.2934 35.4393Z" fill="#EB266F"/>
<path d="M43.3276 33.5566L33.8206 35.4277C33.7834 35.435 33.7452 35.4387 33.7071 35.4387C33.551 35.4387 33.4028 35.3769 33.3012 35.2698L31.0311 32.8721L31.0146 44.9998L43.3278 42.2129L43.3276 33.5566Z" fill="#EB266F"/>
<path d="M30.5001 31.0843L21.1904 29.6182L25.1551 28.9455V27.9609L18.1085 29.157L18.1224 29.2248L15 32.052L27.293 34.4714L30.5001 31.0843Z" fill="#EB266F"/>
<path d="M46.0001 32.052L42.8777 29.2248L42.8916 29.157L35.845 27.9609V28.9455L39.8097 29.6182L30.5 31.0843L33.7069 34.4714L46.0001 32.052Z" fill="#EB266F"/>
</svg>
