<svg width="62" height="59" viewBox="0 0 62 59" fill="none" xmlns="http://www.w3.org/2000/svg">
<rect x="0.5" y="0.5" width="61" height="58" rx="8.5" fill="#171C2C" stroke="#ED2770"/>
<path d="M39.8276 15C35.8282 15 32.5862 18.242 32.5862 22.2414C32.5862 26.2407 35.8282 29.4828 39.8276 29.4828C43.8269 29.4828 47.0689 26.2407 47.0689 22.2414C47.0689 18.242 43.8269 15 39.8276 15ZM42.931 23.7931L39.8276 25.8621L36.7241 23.7931V20.6897L39.8276 18.6207L42.931 20.6897V23.7931Z" fill="#EB266F"/>
<path d="M22.2414 29.4828C26.2407 29.4828 29.4828 26.2407 29.4828 22.2414C29.4828 18.242 26.2407 15 22.2414 15C18.242 15 15 18.242 15 22.2414C15 26.2407 18.242 29.4828 22.2414 29.4828ZM22.2414 18.1034L26.3793 22.2414L22.2414 26.3793L18.1034 22.2414L22.2414 18.1034Z" fill="#EB266F"/>
<path d="M23.7932 37.758C23.7932 41.7574 27.0352 44.9994 31.0346 44.9994C35.034 44.9994 38.276 41.7574 38.276 37.758C38.276 33.7586 35.034 30.5166 31.0346 30.5166C27.0352 30.5166 23.7932 33.7586 23.7932 37.758ZM31.0346 33.6201L34.6553 39.8269H27.4139L31.0346 33.6201Z" fill="#EB266F"/>
</svg>
