<svg width="62" height="59" viewBox="0 0 62 59" fill="none" xmlns="http://www.w3.org/2000/svg">
<rect x="0.5" y="0.5" width="61" height="58" rx="8.5" fill="#171C2C" stroke="#ED2770"/>
<path d="M45.0745 29.5096L41.3085 25.148L43.046 23.414L42.0528 22.4211L42.302 22.1752L42.3017 22.175C42.646 21.8493 42.844 21.3985 42.8504 20.9247C42.8571 20.4508 42.6717 19.9945 42.3365 19.6594C42.0014 19.3246 41.5448 19.1392 41.0709 19.1456C40.5972 19.1521 40.146 19.35 39.8202 19.6942L39.5742 19.9433L38.6078 18.9501L36.8582 20.6992L32.4953 16.9343C30.567 15.2477 27.9349 14.6124 25.449 15.2335L33.8815 23.6599L32.1469 25.3969L33.1372 26.3869L17.5152 41.998C17.0709 42.4424 16.8973 43.0898 17.06 43.6967C17.2226 44.3034 17.6968 44.7775 18.3037 44.9401C18.9108 45.1026 19.5584 44.9291 20.0029 44.485L35.6071 28.8677L36.5974 29.8577L38.3349 28.1237L46.7639 36.5535C47.3882 34.0706 46.7572 31.4395 45.0743 29.5094L45.0745 29.5096Z" fill="#EB266F"/>
</svg>
